HIERARCHY
ROOT Hips
{
	OFFSET 0.00 0.00 0.00
	CHANNELS 6 Xposition Yposition Zposition Xrotation Yrotation Zrotation
	JOINT Spine
	{
		OFFSET 0.00000 1.15266 1.72900
		CHANNELS 3 Xrotation Yrotation Zrotation
		JOINT Spine1
		{
			OFFSET 0.00000 0.40032 2.27031
			CHANNELS 3 Xrotation Yrotation Zrotation
			JOINT Spine2
			{
				OFFSET 0.00000 0.20092 2.29656
				CHANNELS 3 Xrotation Yrotation Zrotation
				JOINT Spine3
				{
					OFFSET 0.00000 0.00000 2.30533
					CHANNELS 3 Xrotation Yrotation Zrotation
					JOINT Neck
					{
						OFFSET 0.00000 -0.86449 6.05149
						CHANNELS 3 Xrotation Yrotation Zrotation
						JOINT Head
						{
							OFFSET 0.00000 -0.55043 3.12167
							CHANNELS 3 Xrotation Yrotation Zrotation
							End Site
							{
								OFFSET 0.00000 0.00000 3.73175
							}
						}
					}
					JOINT RightShoulder
					{
						OFFSET -0.78828 -1.31380 4.25672
						CHANNELS 3 Xrotation Yrotation Zrotation
						JOINT RightArm
						{
							OFFSET -3.91513 0.00000 0.00000
							CHANNELS 3 Xrotation Yrotation Zrotation
							JOINT RightForeArm
							{
								OFFSET -6.91491 0.00000 0.00000
								CHANNELS 3 Xrotation Yrotation Zrotation
								JOINT RightHand
								{
									OFFSET -6.09622 0.00000 0.00000
									CHANNELS 3 Xrotation Yrotation Zrotation
									JOINT RightHandEnd
									{
										OFFSET -1.74995 0.00000 0.00000
										CHANNELS 3 Xrotation Yrotation Zrotation
										End Site
										{
											OFFSET -1.74995 0.00000 0.00000
										}
									}
									JOINT RightHandThumb1
									{
										OFFSET -0.69998 -1.16663 -0.46665
										CHANNELS 3 Yrotation Xrotation Zrotation
										End Site
										{
											OFFSET -1.69032 -0.45292 0.00000
										}
									}
								}
							}
						}
					}
					JOINT LeftShoulder
					{
						OFFSET 0.78828 -1.31380 4.25672
						CHANNELS 3 Xrotation Yrotation Zrotation
						JOINT LeftArm
						{
							OFFSET 3.91513 0.00000 0.00000
							CHANNELS 3 Xrotation Yrotation Zrotation
							JOINT LeftForeArm
							{
								OFFSET 6.91491 0.00000 0.00000
								CHANNELS 3 Xrotation Yrotation Zrotation
								JOINT LeftHand
								{
									OFFSET 6.09622 0.00000 0.00000
									CHANNELS 3 Xrotation Yrotation Zrotation
									JOINT LeftHandEnd
									{
										OFFSET 1.74995 0.00000 0.00000
										CHANNELS 3 Xrotation Yrotation Zrotation
										End Site
										{
											OFFSET 1.74995 0.00000 0.00000
										}
									}
									JOINT LeftHandThumb1
									{
										OFFSET 0.69998 -1.16663 -0.46665
										CHANNELS 3 Yrotation Xrotation Zrotation
										End Site
										{
											OFFSET 1.69032 -0.45292 0.00000
										}
									}
								}
							}
						}
					}
				}
			}
		}
	}
	JOINT RightUpLeg
	{
		OFFSET -2.33857 0.00000 -0.68318
		CHANNELS 3 Xrotation Yrotation Zrotation
		JOINT RightLeg
		{
			OFFSET 0.00000 0.00000 -10.74496
			CHANNELS 3 Xrotation Yrotation Zrotation
			JOINT RightFoot
			{
				OFFSET 0.00000 0.00000 -10.93085
				CHANNELS 3 Xrotation Yrotation Zrotation
				JOINT RightToeBase
				{
					OFFSET 0.00000 -4.08727 -1.48765
					CHANNELS 3 Xrotation Yrotation Zrotation
					End Site
					{
						OFFSET 0.00000 -1.89187 -0.00000
					}
				}
			}
		}
	}
	JOINT LeftUpLeg
	{
		OFFSET 2.33857 0.00000 -0.68318
		CHANNELS 3 Xrotation Yrotation Zrotation
		JOINT LeftLeg
		{
			OFFSET 0.00000 0.00000 -10.74496
			CHANNELS 3 Xrotation Yrotation Zrotation
			JOINT LeftFoot
			{
				OFFSET 0.00000 0.00000 -10.93085
				CHANNELS 3 Xrotation Yrotation Zrotation
				JOINT LeftToeBase
				{
					OFFSET 0.00000 -4.08727 -1.48765
					CHANNELS 3 Xrotation Yrotation Zrotation
					End Site
					{
						OFFSET 0.00000 -1.89187 -0.00000
					}
				}
			}
		}
	}
}
MOTION
Frames: 15
Frame Time: 0.008342
 -0.9524 -12.0917 28.3316 -7.2745 -6.9428 168.0217 28.0321 -1.4976 -1.2795 8.5003 0.1116 -0.2981 12.1532 1.3146 5.1246 0.9239 0.4802 0.7706 -7.2046 -0.6540 1.6633 -0.3607 -5.5351 -1.4106 14.1121 -11.7689 10.8446 6.0000 -49.8247 7.4162 0.0000 0.0000 31.3701 19.4743 40.6663 -6.0861 -0.0000 0.0000 -0.0000 -0.0000 0.0000 -0.0000 14.7827 12.4632 -4.8633 22.9263 36.1618 -38.9513 -0.0000 -0.0000 -14.1543 -23.0525 -43.1374 -15.0867 -0.0000 0.0000 -0.0000 -0.0000 -0.0000 -0.0000 -45.1355 -1.2717 -14.6137 15.2656 0.0000 0.0000 41.5235 -7.2182 9.0288 5.6397 0.0000 0.0000 -44.3218 -22.3229 26.4063 17.3813 0.0000 0.0000 41.3288 22.3298 -26.2869 -3.4232 0.0000 -0.0000
 -0.8877 -11.4111 27.8609 -5.9583 -7.4633 168.1643 28.3573 -1.7900 -1.0354 8.6335 0.1877 -0.3524 12.9584 1.3472 4.9601 1.3226 0.4914 0.7030 -6.7248 -0.5338 1.7142 0.0249 -5.4407 -1.3600 15.1951 -11.7152 9.7866 6.9939 -51.7169 7.6894 0.0000 0.0000 30.9170 18.0790 40.2493 -5.0464 0.0000 -0.0000 0.0000 -0.0000 0.0000 0.0000 15.3472 12.5706 -4.0130 25.2273 37.7019 -40.9880 -0.0000 -0.0000 -13.1810 -23.8504 -42.6171 -15.5447 -0.0000 -0.0000 -0.0000 0.0000 0.0000 0.0000 -44.4360 -1.6658 -13.5745 14.8843 0.0000 0.0000 42.5517 -7.3897 9.1190 5.7014 0.0000 0.0000 -43.3463 -22.3357 27.0142 15.7666 0.0000 0.0000 42.3371 23.9812 -25.5031 -3.8218 0.0000 -0.0000
 -0.8187 -10.7195 27.3584 -4.4942 -8.0170 168.3281 28.6866 -2.0698 -0.7833 8.7613 0.2650 -0.4018 13.7231 1.3587 4.7809 1.7412 0.4945 0.6566 -6.1834 -0.4485 1.6936 0.4926 -5.3595 -1.2625 16.0956 -11.5353 8.7113 7.9639 -53.5265 8.1180 0.0000 0.0000 30.4677 16.6780 39.8679 -3.9347 -0.0000 -0.0000 0.0000 0.0000 -0.0000 0.0000 15.7597 12.5629 -3.1217 27.5518 38.9754 -43.1832 -0.0000 -0.0000 -12.1405 -24.5397 -42.0342 -15.9964 -0.0000 -0.0000 -0.0000 -0.0000 -0.0000 0.0000 -43.5772 -2.0798 -12.1874 14.8044 0.0000 0.0000 43.6253 -7.5991 9.1489 5.5944 0.0000 0.0000 -42.2703 -22.4566 27.5220 14.6830 0.0000 0.0000 43.2982 25.1383 -24.9347 -4.3435 0.0000 -0.0000
 -0.7458 -10.0214 26.8272 -2.9381 -8.5591 168.5192 29.0146 -2.2929 -0.5620 8.8680 0.3414 -0.4397 14.4238 1.3536 4.5903 2.1661 0.4861 0.6352 -5.6035 -0.4544 1.6649 1.0230 -5.2452 -1.1676 16.8025 -11.2569 7.6264 8.9405 -55.1852 8.7419 0.0000 0.0000 30.0240 15.3285 39.5967 -2.8067 0.0000 -0.0000 -0.0000 0.0000 -0.0000 0.0000 16.0174 12.4475 -2.2221 29.8117 39.9450 -45.4304 -0.0000 -0.0000 -11.0747 -25.1345 -41.4933 -16.4385 -0.0000 -0.0000 0.0000 0.0000 -0.0000 -0.0000 -42.6443 -2.4815 -10.6054 15.0775 0.0000 0.0000 44.6143 -7.8119 9.1621 5.3349 0.0000 0.0000 -41.1690 -22.6621 27.9490 14.1778 0.0000 0.0000 44.1192 25.6688 -24.5920 -4.9065 0.0000 -0.0000
 -0.6705 -9.3233 26.2707 -1.3646 -9.0287 168.7246 29.3369 -2.4033 -0.4026 8.9311 0.4079 -0.4579 15.0377 1.3380 4.3978 2.5834 0.4646 0.6376 -5.0272 -0.5095 1.5866 1.6042 -5.1571 -1.0187 17.3010 -10.9111 6.5584 9.9589 -56.6176 9.5859 0.0000 0.0000 29.5996 14.0618 39.5334 -1.7267 -0.0000 -0.0000 0.0000 0.0000 -0.0000 -0.0000 16.1149 12.2429 -1.3686 31.8743 40.6047 -47.5828 -0.0000 -0.0000 -10.0325 -25.6682 -41.0472 -16.8691 -0.0000 0.0000 -0.0000 0.0000 -0.0000 -0.0000 -41.7597 -2.8329 -8.9764 15.7778 0.0000 0.0000 45.3578 -7.9836 9.2004 4.9531 0.0000 0.0000 -40.1363 -22.9169 28.2951 14.2879 0.0000 0.0000 44.6742 25.5070 -24.4409 -5.4166 0.0000 -0.0000
 -0.5914 -8.6332 25.6930 0.1360 -9.4450 168.9481 29.6587 -2.4197 -0.3088 8.9295 0.4535 -0.4510 15.5452 1.3223 4.2101 2.9669 0.4292 0.6586 -4.4917 -0.6300 1.4828 2.2054 -5.0867 -0.8266 17.5823 -10.5513 5.5501 10.9839 -57.7487 10.6101 0.0000 0.0000 29.2128 12.9086 39.7114 -0.7420 -0.0000 0.0000 0.0000 -0.0000 -0.0000 0.0000 16.0468 11.9668 -0.6281 33.6060 40.9691 -49.4757 -0.0000 -0.0000 -9.0586 -26.1752 -40.7612 -17.2953 0.0000 0.0000 0.0000 -0.0000 0.0000 0.0000 -41.0349 -3.1504 -7.5048 16.9574 0.0000 0.0000 45.6869 -8.0619 9.2826 4.4993 0.0000 0.0000 -39.3379 -23.2522 28.4381 15.1022 0.0000 0.0000 44.7932 24.6554 -24.4229 -5.7828 0.0000 -0.0000
 -0.5111 -7.9593 25.0979 1.5034 -9.7437 169.1493 30.0147 -2.2701 -0.2915 8.8380 0.4600 -0.4196 15.9209 1.3224 4.0336 3.2946 0.3818 0.6961 -4.0392 -0.8049 1.3699 2.7942 -5.0402 -0.5949 17.6317 -10.2107 4.6541 11.9237 -58.5360 11.7162 0.0000 0.0000 28.8815 11.8833 40.1280 0.1209 -0.0000 -0.0000 0.0000 -0.0000 -0.0000 0.0000 15.8092 11.6614 -0.0717 34.8640 41.0669 -50.9339 -0.0000 -0.0000 -8.2011 -26.6758 -40.6762 -17.7152 0.0000 -0.0000 0.0000 -0.0000 -0.0000 0.0000 -40.6107 -3.3922 -6.2667 18.7352 0.0000 0.0000 45.4155 -8.0091 9.4228 4.0193 0.0000 0.0000 -38.8784 -23.6301 28.3070 16.6843 0.0000 0.0000 44.2701 23.1841 -24.4227 -5.9167 0.0000 -0.0000
 -0.4298 -7.3107 24.4856 2.5975 -9.9369 169.3036 30.3369 -1.9941 -0.3415 8.6520 0.4590 -0.3506 16.1598 1.3116 3.8755 3.5355 0.3280 0.7329 -3.6986 -1.0250 1.2636 3.3409 -5.0177 -0.3282 17.4646 -9.9444 3.9399 12.6329 -58.9252 12.7381 0.0000 0.0000 28.6549 11.0031 40.7627 0.8284 -0.0000 0.0000 0.0000 0.0000 -0.0000 -0.0000 15.4072 11.3564 0.2488 35.5484 40.9457 -51.8364 -0.0000 -0.0000 -7.4835 -27.1815 -40.7991 -18.1410 -0.0000 -0.0000 0.0000 -0.0000 -0.0000 0.0000 -40.7001 -3.5700 -5.3615 21.2280 0.0000 0.0000 44.3762 -7.8004 9.6072 3.5727 0.0000 0.0000 -39.0372 -24.0855 27.7173 19.1966 0.0000 0.0000 42.8803 21.1950 -24.3261 -5.7500 0.0000 -0.0000
 -0.3488 -6.6915 23.8551 3.3860 -10.0404 169.3851 30.6383 -1.6003 -0.4408 8.3801 0.4158 -0.2633 16.2434 1.3253 3.7401 3.6717 0.2698 0.7720 -3.4861 -1.2748 1.2017 3.8260 -5.0185 -0.0633 17.0989 -9.7705 3.4536 12.9782 -58.9228 13.5242 0.0000 0.0000 28.5658 10.2806 41.5571 1.3775 0.0000 -0.0000 -0.0000 -0.0000 0.0000 -0.0000 14.8650 11.0879 0.2984 35.5910 40.6403 -52.0912 -0.0000 -0.0000 -6.9408 -27.6816 -41.1281 -18.5682 -0.0000 -0.0000 -0.0000 -0.0000 -0.0000 -0.0000 -41.4122 -3.6868 -4.8041 24.5630 0.0000 0.0000 42.4185 -7.4339 9.8187 3.2177 0.0000 0.0000 -39.9710 -24.6316 26.5514 22.7900 0.0000 0.0000 40.4336 18.7889 -24.0418 -5.2285 0.0000 -0.0000
 -0.2673 -6.1009 23.2019 3.8565 -10.1473 169.3886 30.8938 -1.1992 -0.5480 8.0607 0.3618 -0.1611 16.1656 1.3406 3.6365 3.6946 0.2121 0.8039 -3.3935 -1.5245 1.1743 4.2476 -5.0380 0.2085 16.5846 -9.6902 3.2258 12.8648 -58.5473 13.9484 0.0000 0.0000 28.6686 9.7486 42.4364 1.7453 0.0000 -0.0000 -0.0000 -0.0000 0.0000 0.0000 14.2257 10.8729 0.0774 35.0035 40.1791 -51.7059 -0.0000 -0.0000 -6.5794 -28.1629 -41.6415 -19.0026 -0.0000 0.0000 -0.0000 0.0000 0.0000 -0.0000 -42.7991 -3.7959 -4.6133 28.8232 0.0000 0.0000 39.4451 -6.9287 10.0288 3.0212 0.0000 0.0000 -41.8353 -25.3252 24.7296 27.6079 0.0000 0.0000 36.8254 16.0040 -23.5509 -4.3068 0.0000 -0.0000
 -0.1860 -5.5317 22.5211 4.0898 -10.3237 169.3029 31.1056 -0.8527 -0.6233 7.7637 0.2790 -0.0741 15.9196 1.3894 3.5783 3.6093 0.1597 0.8307 -3.3969 -1.7569 1.2056 4.6113 -5.0578 0.4514 15.9757 -9.6746 3.2621 12.2865 -57.8538 13.9752 0.0000 0.0000 28.9899 9.4146 43.3248 1.9538 -0.0000 -0.0000 0.0000 -0.0000 0.0000 -0.0000 13.5456 10.7200 -0.3866 33.8386 39.5716 -50.7360 -0.0000 -0.0000 -6.4081 -28.5951 -42.3170 -19.4403 0.0000 -0.0000 0.0000 -0.0000 0.0000 0.0000 -44.7920 -3.9234 -4.7455 34.0360 0.0000 0.0000 35.4327 -6.3107 10.2239 3.0474 0.0000 0.0000 -44.5777 -26.1637 22.3498 33.6249 0.0000 0.0000 32.1073 12.8403 -22.9061 -2.9733 0.0000 -0.0000
 -0.1062 -4.9729 21.8129 4.2681 -10.6032 169.1430 31.3455 -0.6073 -0.6579 7.5580 0.2429 0.0080 15.5319 1.4144 3.5753 3.4251 0.1200 0.8435 -3.4733 -1.9417 1.2958 4.9254 -5.0690 0.6509 15.3297 -9.6981 3.5634 11.2869 -56.8738 13.6173 0.0000 0.0000 29.5638 9.2814 44.1682 2.0035 0.0000 -0.0000 -0.0000 -0.0000 -0.0000 0.0000 12.8688 10.6246 -1.0470 32.1971 38.8194 -49.3172 -0.0000 -0.0000 -6.3985 -28.9531 -43.1117 -19.8883 -0.0000 -0.0000 0.0000 0.0000 -0.0000 0.0000 -47.1540 -4.0505 -5.1298 40.1041 0.0000 0.0000 30.4723 -5.6079 10.4096 3.3398 0.0000 0.0000 -47.9032 -27.0782 19.6102 40.6057 0.0000 0.0000 26.5025 9.3640 -22.1978 -1.3107 0.0000 -0.0000
 -0.0296 -4.4173 21.0844 4.5519 -10.9720 168.9392 31.6834 -0.4288 -0.6672 7.4967 0.2185 0.0636 15.0382 1.4519 3.6449 3.1572 0.0889 0.8484 -3.6137 -2.0647 1.4308 5.1944 -5.0648 0.7998 14.6743 -9.7327 4.1152 9.9448 -55.6619 12.9495 0.0000 0.0000 30.3808 9.3484 44.9409 1.9161 0.0000 -0.0000 -0.0000 0.0000 0.0000 -0.0000 12.2243 10.5722 -1.8718 30.1666 37.9132 -47.5811 -0.0000 -0.0000 -6.5269 -29.2247 -44.0025 -20.3524 0.0000 -0.0000 0.0000 0.0000 0.0000 0.0000 -49.6207 -4.1282 -5.6700 46.8081 0.0000 0.0000 24.7870 -4.8584 10.5966 3.8989 0.0000 0.0000 -51.4540 -27.9654 16.7112 48.1862 0.0000 0.0000 20.3598 5.7790 -21.4927 0.4947 0.0000 0.0000
 0.0431 -3.8646 20.3492 5.0565 -11.4168 168.7382 32.2007 -0.2923 -0.6781 7.5907 0.2101 0.0987 14.4916 1.4893 3.7978 2.8158 0.0640 0.8483 -3.8178 -2.1249 1.6002 5.4175 -5.0306 0.8814 14.0177 -9.7551 4.8991 8.3529 -54.2641 12.0736 0.0000 0.0000 31.4180 9.6049 45.6512 1.7084 0.0000 0.0000 0.0000 0.0000 -0.0000 0.0000 11.6214 10.5337 -2.8329 27.8350 36.8480 -45.6838 -0.0000 -0.0000 -6.7582 -29.4099 -44.9716 -20.8380 -0.0000 0.0000 -0.0000 0.0000 -0.0000 -0.0000 -51.9441 -4.1213 -6.2822 53.8531 0.0000 0.0000 18.6948 -4.1111 10.7895 4.6649 0.0000 0.0000 -54.9178 -28.7465 13.7798 55.9979 0.0000 0.0000 14.0660 2.3827 -20.8108 2.2172 0.0000 0.0000
 0.1109 -3.3224 19.6215 5.7423 -11.9084 168.5637 32.8675 -0.1797 -0.7132 7.8238 0.2133 0.1210 13.9386 1.5231 4.0388 2.4144 0.0472 0.8469 -4.0854 -2.1361 1.7934 5.5959 -4.9544 0.8833 13.3591 -9.7458 5.8883 6.6017 -52.7257 11.1096 0.0000 0.0000 32.6376 10.0253 46.3449 1.4080 -0.0000 0.0000 -0.0000 -0.0000 0.0000 0.0000 11.0616 10.4587 -3.8973 25.2866 35.6300 -43.7969 -0.0000 -0.0000 -7.0524 -29.5228 -46.0091 -21.3496 0.0000 -0.0000 0.0000 0.0000 -0.0000 0.0000 -54.0647 -4.0153 -6.9021 60.9633 0.0000 0.0000 12.5532 -3.4107 10.9879 5.5301 0.0000 0.0000 -58.1987 -29.3725 10.8745 63.7447 0.0000 0.0000 7.9826 -0.5469 -20.1242 3.6759 0.0000 0.0000
